<mxfile host="app.diagrams.net" modified="2020-12-13T04:01:46.127Z" agent="5.0 (Windows NT 10.0; Win64; x64) AppleWebKit/537.36 (KHTML, like Gecko) Chrome/87.0.4280.88 Safari/537.36" etag="_Z25nnxF0ghDeaJJRwfF" version="14.0.1" type="github">
  <diagram id="R2lEEEUBdFMjLlhIrx00" name="Page-1">
    <mxGraphModel dx="1038" dy="491" grid="1" gridSize="10" guides="1" tooltips="1" connect="1" arrows="1" fold="1" page="1" pageScale="1" pageWidth="850" pageHeight="1100" math="0" shadow="0" extFonts="Permanent Marker^https://fonts.googleapis.com/css?family=Permanent+Marker">
      <root>
        <mxCell id="0" />
        <mxCell id="1" parent="0" />
        <mxCell id="C-vyLk0tnHw3VtMMgP7b-12" value="" style="edgeStyle=entityRelationEdgeStyle;endArrow=ERzeroToMany;startArrow=ERone;endFill=1;startFill=0;" parent="1" target="C-vyLk0tnHw3VtMMgP7b-17" edge="1">
          <mxGeometry width="100" height="100" relative="1" as="geometry">
            <mxPoint x="700" y="165" as="sourcePoint" />
            <mxPoint x="460" y="205" as="targetPoint" />
          </mxGeometry>
        </mxCell>
        <mxCell id="95mtV3WKHOGAhBDc5iSU-59" style="edgeStyle=orthogonalEdgeStyle;rounded=0;orthogonalLoop=1;jettySize=auto;html=1;endArrow=none;endFill=0;" edge="1" parent="1" source="C-vyLk0tnHw3VtMMgP7b-23" target="95mtV3WKHOGAhBDc5iSU-9">
          <mxGeometry relative="1" as="geometry" />
        </mxCell>
        <mxCell id="95mtV3WKHOGAhBDc5iSU-85" style="edgeStyle=orthogonalEdgeStyle;rounded=0;orthogonalLoop=1;jettySize=auto;html=1;entryX=0.5;entryY=0;entryDx=0;entryDy=0;endArrow=none;endFill=0;" edge="1" parent="1" source="C-vyLk0tnHw3VtMMgP7b-23" target="95mtV3WKHOGAhBDc5iSU-15">
          <mxGeometry relative="1" as="geometry" />
        </mxCell>
        <mxCell id="C-vyLk0tnHw3VtMMgP7b-23" value="Inspection" style="shape=table;startSize=30;container=1;collapsible=1;childLayout=tableLayout;fixedRows=1;rowLines=0;fontStyle=1;align=center;resizeLast=1;" parent="1" vertex="1">
          <mxGeometry x="80" y="40" width="140" height="90" as="geometry" />
        </mxCell>
        <mxCell id="C-vyLk0tnHw3VtMMgP7b-27" value="" style="shape=partialRectangle;collapsible=0;dropTarget=0;pointerEvents=0;fillColor=none;points=[[0,0.5],[1,0.5]];portConstraint=eastwest;top=0;left=0;right=0;bottom=0;" parent="C-vyLk0tnHw3VtMMgP7b-23" vertex="1">
          <mxGeometry y="30" width="140" height="30" as="geometry" />
        </mxCell>
        <mxCell id="C-vyLk0tnHw3VtMMgP7b-28" value="" style="shape=partialRectangle;overflow=hidden;connectable=0;fillColor=none;top=0;left=0;bottom=0;right=0;" parent="C-vyLk0tnHw3VtMMgP7b-27" vertex="1">
          <mxGeometry width="30" height="30" as="geometry" />
        </mxCell>
        <mxCell id="C-vyLk0tnHw3VtMMgP7b-29" value="" style="shape=partialRectangle;overflow=hidden;connectable=0;fillColor=none;top=0;left=0;bottom=0;right=0;align=left;spacingLeft=6;" parent="C-vyLk0tnHw3VtMMgP7b-27" vertex="1">
          <mxGeometry x="30" width="110" height="30" as="geometry" />
        </mxCell>
        <mxCell id="C-vyLk0tnHw3VtMMgP7b-24" value="" style="shape=partialRectangle;collapsible=0;dropTarget=0;pointerEvents=0;fillColor=none;points=[[0,0.5],[1,0.5]];portConstraint=eastwest;top=0;left=0;right=0;bottom=1;" parent="C-vyLk0tnHw3VtMMgP7b-23" vertex="1">
          <mxGeometry y="60" width="140" height="30" as="geometry" />
        </mxCell>
        <mxCell id="C-vyLk0tnHw3VtMMgP7b-25" value="" style="shape=partialRectangle;overflow=hidden;connectable=0;fillColor=none;top=0;left=0;bottom=0;right=0;fontStyle=1;" parent="C-vyLk0tnHw3VtMMgP7b-24" vertex="1">
          <mxGeometry width="30" height="30" as="geometry" />
        </mxCell>
        <mxCell id="C-vyLk0tnHw3VtMMgP7b-26" value="" style="shape=partialRectangle;overflow=hidden;connectable=0;fillColor=none;top=0;left=0;bottom=0;right=0;align=left;spacingLeft=6;fontStyle=5;" parent="C-vyLk0tnHw3VtMMgP7b-24" vertex="1">
          <mxGeometry x="30" width="110" height="30" as="geometry" />
        </mxCell>
        <mxCell id="95mtV3WKHOGAhBDc5iSU-66" style="edgeStyle=orthogonalEdgeStyle;rounded=0;orthogonalLoop=1;jettySize=auto;html=1;entryX=0.014;entryY=-0.087;entryDx=0;entryDy=0;entryPerimeter=0;endArrow=none;endFill=0;" edge="1" parent="1" source="95mtV3WKHOGAhBDc5iSU-8" target="95mtV3WKHOGAhBDc5iSU-33">
          <mxGeometry relative="1" as="geometry" />
        </mxCell>
        <mxCell id="95mtV3WKHOGAhBDc5iSU-8" value="Staff" style="shape=table;startSize=30;container=1;collapsible=1;childLayout=tableLayout;fixedRows=1;rowLines=0;fontStyle=1;align=center;resizeLast=1;" vertex="1" parent="1">
          <mxGeometry x="320" y="40" width="140" height="90" as="geometry" />
        </mxCell>
        <mxCell id="95mtV3WKHOGAhBDc5iSU-9" value="" style="shape=partialRectangle;collapsible=0;dropTarget=0;pointerEvents=0;fillColor=none;points=[[0,0.5],[1,0.5]];portConstraint=eastwest;top=0;left=0;right=0;bottom=0;" vertex="1" parent="95mtV3WKHOGAhBDc5iSU-8">
          <mxGeometry y="30" width="140" height="30" as="geometry" />
        </mxCell>
        <mxCell id="95mtV3WKHOGAhBDc5iSU-10" value="" style="shape=partialRectangle;overflow=hidden;connectable=0;fillColor=none;top=0;left=0;bottom=0;right=0;" vertex="1" parent="95mtV3WKHOGAhBDc5iSU-9">
          <mxGeometry width="30" height="30" as="geometry" />
        </mxCell>
        <mxCell id="95mtV3WKHOGAhBDc5iSU-11" value="staffNo" style="shape=partialRectangle;overflow=hidden;connectable=0;fillColor=none;top=0;left=0;bottom=0;right=0;align=left;spacingLeft=6;" vertex="1" parent="95mtV3WKHOGAhBDc5iSU-9">
          <mxGeometry x="30" width="110" height="30" as="geometry" />
        </mxCell>
        <mxCell id="95mtV3WKHOGAhBDc5iSU-12" value="" style="shape=partialRectangle;collapsible=0;dropTarget=0;pointerEvents=0;fillColor=none;points=[[0,0.5],[1,0.5]];portConstraint=eastwest;top=0;left=0;right=0;bottom=1;" vertex="1" parent="95mtV3WKHOGAhBDc5iSU-8">
          <mxGeometry y="60" width="140" height="30" as="geometry" />
        </mxCell>
        <mxCell id="95mtV3WKHOGAhBDc5iSU-13" value="" style="shape=partialRectangle;overflow=hidden;connectable=0;fillColor=none;top=0;left=0;bottom=0;right=0;fontStyle=1;" vertex="1" parent="95mtV3WKHOGAhBDc5iSU-12">
          <mxGeometry width="30" height="30" as="geometry" />
        </mxCell>
        <mxCell id="95mtV3WKHOGAhBDc5iSU-14" value="" style="shape=partialRectangle;overflow=hidden;connectable=0;fillColor=none;top=0;left=0;bottom=0;right=0;align=left;spacingLeft=6;fontStyle=5;" vertex="1" parent="95mtV3WKHOGAhBDc5iSU-12">
          <mxGeometry x="30" width="110" height="30" as="geometry" />
        </mxCell>
        <mxCell id="95mtV3WKHOGAhBDc5iSU-57" style="edgeStyle=orthogonalEdgeStyle;rounded=0;orthogonalLoop=1;jettySize=auto;html=1;endArrow=none;endFill=0;" edge="1" parent="1" source="95mtV3WKHOGAhBDc5iSU-15" target="95mtV3WKHOGAhBDc5iSU-36">
          <mxGeometry relative="1" as="geometry">
            <mxPoint x="630" y="30" as="targetPoint" />
            <Array as="points">
              <mxPoint x="40" y="365" />
              <mxPoint x="40" y="20" />
              <mxPoint x="630" y="20" />
            </Array>
          </mxGeometry>
        </mxCell>
        <mxCell id="95mtV3WKHOGAhBDc5iSU-15" value="Car" style="shape=table;startSize=30;container=1;collapsible=1;childLayout=tableLayout;fixedRows=1;rowLines=0;fontStyle=1;align=center;resizeLast=1;" vertex="1" parent="1">
          <mxGeometry x="80" y="320" width="140" height="90" as="geometry" />
        </mxCell>
        <mxCell id="95mtV3WKHOGAhBDc5iSU-16" value="" style="shape=partialRectangle;collapsible=0;dropTarget=0;pointerEvents=0;fillColor=none;points=[[0,0.5],[1,0.5]];portConstraint=eastwest;top=0;left=0;right=0;bottom=0;" vertex="1" parent="95mtV3WKHOGAhBDc5iSU-15">
          <mxGeometry y="30" width="140" height="30" as="geometry" />
        </mxCell>
        <mxCell id="95mtV3WKHOGAhBDc5iSU-17" value="" style="shape=partialRectangle;overflow=hidden;connectable=0;fillColor=none;top=0;left=0;bottom=0;right=0;" vertex="1" parent="95mtV3WKHOGAhBDc5iSU-16">
          <mxGeometry width="30" height="30" as="geometry" />
        </mxCell>
        <mxCell id="95mtV3WKHOGAhBDc5iSU-18" value="carRegNo" style="shape=partialRectangle;overflow=hidden;connectable=0;fillColor=none;top=0;left=0;bottom=0;right=0;align=left;spacingLeft=6;" vertex="1" parent="95mtV3WKHOGAhBDc5iSU-16">
          <mxGeometry x="30" width="110" height="30" as="geometry" />
        </mxCell>
        <mxCell id="95mtV3WKHOGAhBDc5iSU-19" value="" style="shape=partialRectangle;collapsible=0;dropTarget=0;pointerEvents=0;fillColor=none;points=[[0,0.5],[1,0.5]];portConstraint=eastwest;top=0;left=0;right=0;bottom=1;" vertex="1" parent="95mtV3WKHOGAhBDc5iSU-15">
          <mxGeometry y="60" width="140" height="30" as="geometry" />
        </mxCell>
        <mxCell id="95mtV3WKHOGAhBDc5iSU-20" value="" style="shape=partialRectangle;overflow=hidden;connectable=0;fillColor=none;top=0;left=0;bottom=0;right=0;fontStyle=1;" vertex="1" parent="95mtV3WKHOGAhBDc5iSU-19">
          <mxGeometry width="30" height="30" as="geometry" />
        </mxCell>
        <mxCell id="95mtV3WKHOGAhBDc5iSU-21" value="" style="shape=partialRectangle;overflow=hidden;connectable=0;fillColor=none;top=0;left=0;bottom=0;right=0;align=left;spacingLeft=6;fontStyle=5;" vertex="1" parent="95mtV3WKHOGAhBDc5iSU-19">
          <mxGeometry x="30" width="110" height="30" as="geometry" />
        </mxCell>
        <mxCell id="95mtV3WKHOGAhBDc5iSU-67" style="edgeStyle=orthogonalEdgeStyle;rounded=0;orthogonalLoop=1;jettySize=auto;html=1;exitX=0.25;exitY=0;exitDx=0;exitDy=0;entryX=0.209;entryY=0.98;entryDx=0;entryDy=0;entryPerimeter=0;endArrow=none;endFill=0;" edge="1" parent="1" source="95mtV3WKHOGAhBDc5iSU-22" target="95mtV3WKHOGAhBDc5iSU-12">
          <mxGeometry relative="1" as="geometry">
            <Array as="points">
              <mxPoint x="355" y="129" />
            </Array>
          </mxGeometry>
        </mxCell>
        <mxCell id="95mtV3WKHOGAhBDc5iSU-22" value="Lesson" style="shape=table;startSize=30;container=1;collapsible=1;childLayout=tableLayout;fixedRows=1;rowLines=0;fontStyle=1;align=center;resizeLast=1;" vertex="1" parent="1">
          <mxGeometry x="320" y="320" width="140" height="90" as="geometry" />
        </mxCell>
        <mxCell id="95mtV3WKHOGAhBDc5iSU-23" value="" style="shape=partialRectangle;collapsible=0;dropTarget=0;pointerEvents=0;fillColor=none;points=[[0,0.5],[1,0.5]];portConstraint=eastwest;top=0;left=0;right=0;bottom=0;" vertex="1" parent="95mtV3WKHOGAhBDc5iSU-22">
          <mxGeometry y="30" width="140" height="30" as="geometry" />
        </mxCell>
        <mxCell id="95mtV3WKHOGAhBDc5iSU-24" value="" style="shape=partialRectangle;overflow=hidden;connectable=0;fillColor=none;top=0;left=0;bottom=0;right=0;" vertex="1" parent="95mtV3WKHOGAhBDc5iSU-23">
          <mxGeometry width="30" height="30" as="geometry" />
        </mxCell>
        <mxCell id="95mtV3WKHOGAhBDc5iSU-25" value="lessonNo" style="shape=partialRectangle;overflow=hidden;connectable=0;fillColor=none;top=0;left=0;bottom=0;right=0;align=left;spacingLeft=6;" vertex="1" parent="95mtV3WKHOGAhBDc5iSU-23">
          <mxGeometry x="30" width="110" height="30" as="geometry" />
        </mxCell>
        <mxCell id="95mtV3WKHOGAhBDc5iSU-26" value="" style="shape=partialRectangle;collapsible=0;dropTarget=0;pointerEvents=0;fillColor=none;points=[[0,0.5],[1,0.5]];portConstraint=eastwest;top=0;left=0;right=0;bottom=1;" vertex="1" parent="95mtV3WKHOGAhBDc5iSU-22">
          <mxGeometry y="60" width="140" height="30" as="geometry" />
        </mxCell>
        <mxCell id="95mtV3WKHOGAhBDc5iSU-27" value="" style="shape=partialRectangle;overflow=hidden;connectable=0;fillColor=none;top=0;left=0;bottom=0;right=0;fontStyle=1;" vertex="1" parent="95mtV3WKHOGAhBDc5iSU-26">
          <mxGeometry width="30" height="30" as="geometry" />
        </mxCell>
        <mxCell id="95mtV3WKHOGAhBDc5iSU-28" value="" style="shape=partialRectangle;overflow=hidden;connectable=0;fillColor=none;top=0;left=0;bottom=0;right=0;align=left;spacingLeft=6;fontStyle=5;" vertex="1" parent="95mtV3WKHOGAhBDc5iSU-26">
          <mxGeometry x="30" width="110" height="30" as="geometry" />
        </mxCell>
        <mxCell id="95mtV3WKHOGAhBDc5iSU-84" style="edgeStyle=orthogonalEdgeStyle;rounded=0;orthogonalLoop=1;jettySize=auto;html=1;entryX=-0.003;entryY=0.104;entryDx=0;entryDy=0;entryPerimeter=0;endArrow=none;endFill=0;" edge="1" parent="1" source="95mtV3WKHOGAhBDc5iSU-29" target="95mtV3WKHOGAhBDc5iSU-43">
          <mxGeometry relative="1" as="geometry" />
        </mxCell>
        <mxCell id="95mtV3WKHOGAhBDc5iSU-29" value="Interview" style="shape=table;startSize=30;container=1;collapsible=1;childLayout=tableLayout;fixedRows=1;rowLines=0;fontStyle=1;align=center;resizeLast=1;" vertex="1" parent="1">
          <mxGeometry x="430" y="200" width="140" height="90" as="geometry" />
        </mxCell>
        <mxCell id="95mtV3WKHOGAhBDc5iSU-30" value="" style="shape=partialRectangle;collapsible=0;dropTarget=0;pointerEvents=0;fillColor=none;points=[[0,0.5],[1,0.5]];portConstraint=eastwest;top=0;left=0;right=0;bottom=0;" vertex="1" parent="95mtV3WKHOGAhBDc5iSU-29">
          <mxGeometry y="30" width="140" height="30" as="geometry" />
        </mxCell>
        <mxCell id="95mtV3WKHOGAhBDc5iSU-31" value="" style="shape=partialRectangle;overflow=hidden;connectable=0;fillColor=none;top=0;left=0;bottom=0;right=0;" vertex="1" parent="95mtV3WKHOGAhBDc5iSU-30">
          <mxGeometry width="30" height="30" as="geometry" />
        </mxCell>
        <mxCell id="95mtV3WKHOGAhBDc5iSU-32" value="" style="shape=partialRectangle;overflow=hidden;connectable=0;fillColor=none;top=0;left=0;bottom=0;right=0;align=left;spacingLeft=6;" vertex="1" parent="95mtV3WKHOGAhBDc5iSU-30">
          <mxGeometry x="30" width="110" height="30" as="geometry" />
        </mxCell>
        <mxCell id="95mtV3WKHOGAhBDc5iSU-33" value="" style="shape=partialRectangle;collapsible=0;dropTarget=0;pointerEvents=0;fillColor=none;points=[[0,0.5],[1,0.5]];portConstraint=eastwest;top=0;left=0;right=0;bottom=1;" vertex="1" parent="95mtV3WKHOGAhBDc5iSU-29">
          <mxGeometry y="60" width="140" height="30" as="geometry" />
        </mxCell>
        <mxCell id="95mtV3WKHOGAhBDc5iSU-34" value="" style="shape=partialRectangle;overflow=hidden;connectable=0;fillColor=none;top=0;left=0;bottom=0;right=0;fontStyle=1;" vertex="1" parent="95mtV3WKHOGAhBDc5iSU-33">
          <mxGeometry width="30" height="30" as="geometry" />
        </mxCell>
        <mxCell id="95mtV3WKHOGAhBDc5iSU-35" value="" style="shape=partialRectangle;overflow=hidden;connectable=0;fillColor=none;top=0;left=0;bottom=0;right=0;align=left;spacingLeft=6;fontStyle=5;" vertex="1" parent="95mtV3WKHOGAhBDc5iSU-33">
          <mxGeometry x="30" width="110" height="30" as="geometry" />
        </mxCell>
        <mxCell id="95mtV3WKHOGAhBDc5iSU-36" value="Office" style="shape=table;startSize=30;container=1;collapsible=1;childLayout=tableLayout;fixedRows=1;rowLines=0;fontStyle=1;align=center;resizeLast=1;" vertex="1" parent="1">
          <mxGeometry x="560" y="40" width="140" height="90" as="geometry" />
        </mxCell>
        <mxCell id="95mtV3WKHOGAhBDc5iSU-37" value="" style="shape=partialRectangle;collapsible=0;dropTarget=0;pointerEvents=0;fillColor=none;points=[[0,0.5],[1,0.5]];portConstraint=eastwest;top=0;left=0;right=0;bottom=0;" vertex="1" parent="95mtV3WKHOGAhBDc5iSU-36">
          <mxGeometry y="30" width="140" height="30" as="geometry" />
        </mxCell>
        <mxCell id="95mtV3WKHOGAhBDc5iSU-38" value="" style="shape=partialRectangle;overflow=hidden;connectable=0;fillColor=none;top=0;left=0;bottom=0;right=0;" vertex="1" parent="95mtV3WKHOGAhBDc5iSU-37">
          <mxGeometry width="30" height="30" as="geometry" />
        </mxCell>
        <mxCell id="95mtV3WKHOGAhBDc5iSU-39" value="officeNo" style="shape=partialRectangle;overflow=hidden;connectable=0;fillColor=none;top=0;left=0;bottom=0;right=0;align=left;spacingLeft=6;" vertex="1" parent="95mtV3WKHOGAhBDc5iSU-37">
          <mxGeometry x="30" width="110" height="30" as="geometry" />
        </mxCell>
        <mxCell id="95mtV3WKHOGAhBDc5iSU-40" value="" style="shape=partialRectangle;collapsible=0;dropTarget=0;pointerEvents=0;fillColor=none;points=[[0,0.5],[1,0.5]];portConstraint=eastwest;top=0;left=0;right=0;bottom=1;" vertex="1" parent="95mtV3WKHOGAhBDc5iSU-36">
          <mxGeometry y="60" width="140" height="30" as="geometry" />
        </mxCell>
        <mxCell id="95mtV3WKHOGAhBDc5iSU-41" value="" style="shape=partialRectangle;overflow=hidden;connectable=0;fillColor=none;top=0;left=0;bottom=0;right=0;fontStyle=1;" vertex="1" parent="95mtV3WKHOGAhBDc5iSU-40">
          <mxGeometry width="30" height="30" as="geometry" />
        </mxCell>
        <mxCell id="95mtV3WKHOGAhBDc5iSU-42" value="" style="shape=partialRectangle;overflow=hidden;connectable=0;fillColor=none;top=0;left=0;bottom=0;right=0;align=left;spacingLeft=6;fontStyle=5;" vertex="1" parent="95mtV3WKHOGAhBDc5iSU-40">
          <mxGeometry x="30" width="110" height="30" as="geometry" />
        </mxCell>
        <mxCell id="95mtV3WKHOGAhBDc5iSU-63" style="edgeStyle=orthogonalEdgeStyle;rounded=0;orthogonalLoop=1;jettySize=auto;html=1;entryX=0.5;entryY=0;entryDx=0;entryDy=0;endArrow=none;endFill=0;" edge="1" parent="1" source="95mtV3WKHOGAhBDc5iSU-43" target="95mtV3WKHOGAhBDc5iSU-50">
          <mxGeometry relative="1" as="geometry" />
        </mxCell>
        <mxCell id="95mtV3WKHOGAhBDc5iSU-82" style="edgeStyle=orthogonalEdgeStyle;rounded=0;orthogonalLoop=1;jettySize=auto;html=1;exitX=0.5;exitY=0;exitDx=0;exitDy=0;entryX=0.477;entryY=1.007;entryDx=0;entryDy=0;entryPerimeter=0;endArrow=none;endFill=0;" edge="1" parent="1" source="95mtV3WKHOGAhBDc5iSU-43" target="95mtV3WKHOGAhBDc5iSU-40">
          <mxGeometry relative="1" as="geometry">
            <Array as="points">
              <mxPoint x="627" y="320" />
            </Array>
          </mxGeometry>
        </mxCell>
        <mxCell id="95mtV3WKHOGAhBDc5iSU-43" value="Client" style="shape=table;startSize=30;container=1;collapsible=1;childLayout=tableLayout;fixedRows=1;rowLines=0;fontStyle=1;align=center;resizeLast=1;" vertex="1" parent="1">
          <mxGeometry x="560" y="320" width="140" height="90" as="geometry" />
        </mxCell>
        <mxCell id="95mtV3WKHOGAhBDc5iSU-44" value="" style="shape=partialRectangle;collapsible=0;dropTarget=0;pointerEvents=0;fillColor=none;points=[[0,0.5],[1,0.5]];portConstraint=eastwest;top=0;left=0;right=0;bottom=0;" vertex="1" parent="95mtV3WKHOGAhBDc5iSU-43">
          <mxGeometry y="30" width="140" height="30" as="geometry" />
        </mxCell>
        <mxCell id="95mtV3WKHOGAhBDc5iSU-45" value="" style="shape=partialRectangle;overflow=hidden;connectable=0;fillColor=none;top=0;left=0;bottom=0;right=0;" vertex="1" parent="95mtV3WKHOGAhBDc5iSU-44">
          <mxGeometry width="30" height="30" as="geometry" />
        </mxCell>
        <mxCell id="95mtV3WKHOGAhBDc5iSU-46" value="clientNo" style="shape=partialRectangle;overflow=hidden;connectable=0;fillColor=none;top=0;left=0;bottom=0;right=0;align=left;spacingLeft=6;" vertex="1" parent="95mtV3WKHOGAhBDc5iSU-44">
          <mxGeometry x="30" width="110" height="30" as="geometry" />
        </mxCell>
        <mxCell id="95mtV3WKHOGAhBDc5iSU-47" value="" style="shape=partialRectangle;collapsible=0;dropTarget=0;pointerEvents=0;fillColor=none;points=[[0,0.5],[1,0.5]];portConstraint=eastwest;top=0;left=0;right=0;bottom=1;" vertex="1" parent="95mtV3WKHOGAhBDc5iSU-43">
          <mxGeometry y="60" width="140" height="30" as="geometry" />
        </mxCell>
        <mxCell id="95mtV3WKHOGAhBDc5iSU-48" value="" style="shape=partialRectangle;overflow=hidden;connectable=0;fillColor=none;top=0;left=0;bottom=0;right=0;fontStyle=1;" vertex="1" parent="95mtV3WKHOGAhBDc5iSU-47">
          <mxGeometry width="30" height="30" as="geometry" />
        </mxCell>
        <mxCell id="95mtV3WKHOGAhBDc5iSU-49" value="" style="shape=partialRectangle;overflow=hidden;connectable=0;fillColor=none;top=0;left=0;bottom=0;right=0;align=left;spacingLeft=6;fontStyle=5;" vertex="1" parent="95mtV3WKHOGAhBDc5iSU-47">
          <mxGeometry x="30" width="110" height="30" as="geometry" />
        </mxCell>
        <mxCell id="95mtV3WKHOGAhBDc5iSU-50" value="DrivingTest" style="shape=table;startSize=30;container=1;collapsible=1;childLayout=tableLayout;fixedRows=1;rowLines=0;fontStyle=1;align=center;resizeLast=1;" vertex="1" parent="1">
          <mxGeometry x="560" y="460" width="140" height="90" as="geometry" />
        </mxCell>
        <mxCell id="95mtV3WKHOGAhBDc5iSU-51" value="" style="shape=partialRectangle;collapsible=0;dropTarget=0;pointerEvents=0;fillColor=none;points=[[0,0.5],[1,0.5]];portConstraint=eastwest;top=0;left=0;right=0;bottom=0;" vertex="1" parent="95mtV3WKHOGAhBDc5iSU-50">
          <mxGeometry y="30" width="140" height="30" as="geometry" />
        </mxCell>
        <mxCell id="95mtV3WKHOGAhBDc5iSU-52" value="" style="shape=partialRectangle;overflow=hidden;connectable=0;fillColor=none;top=0;left=0;bottom=0;right=0;" vertex="1" parent="95mtV3WKHOGAhBDc5iSU-51">
          <mxGeometry width="30" height="30" as="geometry" />
        </mxCell>
        <mxCell id="95mtV3WKHOGAhBDc5iSU-53" value="testNo" style="shape=partialRectangle;overflow=hidden;connectable=0;fillColor=none;top=0;left=0;bottom=0;right=0;align=left;spacingLeft=6;" vertex="1" parent="95mtV3WKHOGAhBDc5iSU-51">
          <mxGeometry x="30" width="110" height="30" as="geometry" />
        </mxCell>
        <mxCell id="95mtV3WKHOGAhBDc5iSU-54" value="" style="shape=partialRectangle;collapsible=0;dropTarget=0;pointerEvents=0;fillColor=none;points=[[0,0.5],[1,0.5]];portConstraint=eastwest;top=0;left=0;right=0;bottom=1;" vertex="1" parent="95mtV3WKHOGAhBDc5iSU-50">
          <mxGeometry y="60" width="140" height="30" as="geometry" />
        </mxCell>
        <mxCell id="95mtV3WKHOGAhBDc5iSU-55" value="" style="shape=partialRectangle;overflow=hidden;connectable=0;fillColor=none;top=0;left=0;bottom=0;right=0;fontStyle=1;" vertex="1" parent="95mtV3WKHOGAhBDc5iSU-54">
          <mxGeometry width="30" height="30" as="geometry" />
        </mxCell>
        <mxCell id="95mtV3WKHOGAhBDc5iSU-56" value="" style="shape=partialRectangle;overflow=hidden;connectable=0;fillColor=none;top=0;left=0;bottom=0;right=0;align=left;spacingLeft=6;fontStyle=5;" vertex="1" parent="95mtV3WKHOGAhBDc5iSU-54">
          <mxGeometry x="30" width="110" height="30" as="geometry" />
        </mxCell>
        <mxCell id="95mtV3WKHOGAhBDc5iSU-58" value="1 : 1" style="text;html=1;align=center;verticalAlign=middle;resizable=0;points=[];autosize=1;" vertex="1" parent="1">
          <mxGeometry x="630" y="10" width="40" height="20" as="geometry" />
        </mxCell>
        <mxCell id="95mtV3WKHOGAhBDc5iSU-61" style="edgeStyle=orthogonalEdgeStyle;rounded=0;orthogonalLoop=1;jettySize=auto;html=1;endArrow=none;endFill=0;" edge="1" parent="1" source="95mtV3WKHOGAhBDc5iSU-9" target="95mtV3WKHOGAhBDc5iSU-37">
          <mxGeometry relative="1" as="geometry" />
        </mxCell>
        <mxCell id="95mtV3WKHOGAhBDc5iSU-68" style="edgeStyle=orthogonalEdgeStyle;rounded=0;orthogonalLoop=1;jettySize=auto;html=1;endArrow=none;endFill=0;" edge="1" parent="1" source="95mtV3WKHOGAhBDc5iSU-16" target="95mtV3WKHOGAhBDc5iSU-23">
          <mxGeometry relative="1" as="geometry" />
        </mxCell>
        <mxCell id="95mtV3WKHOGAhBDc5iSU-69" style="edgeStyle=orthogonalEdgeStyle;rounded=0;orthogonalLoop=1;jettySize=auto;html=1;entryX=0;entryY=0.5;entryDx=0;entryDy=0;endArrow=none;endFill=0;" edge="1" parent="1" source="95mtV3WKHOGAhBDc5iSU-23" target="95mtV3WKHOGAhBDc5iSU-44">
          <mxGeometry relative="1" as="geometry" />
        </mxCell>
        <mxCell id="95mtV3WKHOGAhBDc5iSU-70" value="1 : 1" style="text;html=1;align=center;verticalAlign=middle;resizable=0;points=[];autosize=1;" vertex="1" parent="1">
          <mxGeometry x="390" y="130" width="40" height="20" as="geometry" />
        </mxCell>
        <mxCell id="95mtV3WKHOGAhBDc5iSU-72" value="" style="triangle;whiteSpace=wrap;html=1;fillColor=#000000;" vertex="1" parent="1">
          <mxGeometry x="540" y="70" width="10" height="10" as="geometry" />
        </mxCell>
        <mxCell id="95mtV3WKHOGAhBDc5iSU-73" value="" style="triangle;whiteSpace=wrap;html=1;fillColor=#000000;portConstraintRotation=0;rotation=-180;" vertex="1" parent="1">
          <mxGeometry x="230" y="70" width="10" height="10" as="geometry" />
        </mxCell>
        <mxCell id="95mtV3WKHOGAhBDc5iSU-74" value="" style="triangle;whiteSpace=wrap;html=1;fillColor=#000000;rotation=90;" vertex="1" parent="1">
          <mxGeometry x="400" y="230" width="10" height="10" as="geometry" />
        </mxCell>
        <mxCell id="95mtV3WKHOGAhBDc5iSU-75" value="" style="triangle;whiteSpace=wrap;html=1;fillColor=#000000;rotation=0;" vertex="1" parent="1">
          <mxGeometry x="540" y="310" width="10" height="10" as="geometry" />
        </mxCell>
        <mxCell id="95mtV3WKHOGAhBDc5iSU-76" value="" style="triangle;whiteSpace=wrap;html=1;fillColor=#000000;portConstraintRotation=0;rotation=-180;" vertex="1" parent="1">
          <mxGeometry x="540" y="350" width="10" height="10" as="geometry" />
        </mxCell>
        <mxCell id="95mtV3WKHOGAhBDc5iSU-77" value="undertakes" style="text;html=1;align=center;verticalAlign=middle;resizable=0;points=[];autosize=1;" vertex="1" parent="1">
          <mxGeometry x="250" y="65" width="70" height="20" as="geometry" />
        </mxCell>
        <mxCell id="95mtV3WKHOGAhBDc5iSU-78" value="manages" style="text;html=1;align=center;verticalAlign=middle;resizable=0;points=[];autosize=1;" vertex="1" parent="1">
          <mxGeometry x="460" y="65" width="70" height="20" as="geometry" />
        </mxCell>
        <mxCell id="95mtV3WKHOGAhBDc5iSU-80" value="runs" style="text;html=1;align=center;verticalAlign=middle;resizable=0;points=[];autosize=1;" vertex="1" parent="1">
          <mxGeometry x="50" y="210" width="40" height="20" as="geometry" />
        </mxCell>
        <mxCell id="95mtV3WKHOGAhBDc5iSU-81" style="edgeStyle=orthogonalEdgeStyle;rounded=0;orthogonalLoop=1;jettySize=auto;html=1;entryX=0;entryY=0.5;entryDx=0;entryDy=0;endArrow=none;endFill=0;" edge="1" parent="1" source="95mtV3WKHOGAhBDc5iSU-12" target="95mtV3WKHOGAhBDc5iSU-40">
          <mxGeometry relative="1" as="geometry" />
        </mxCell>
        <mxCell id="95mtV3WKHOGAhBDc5iSU-86" value="inspected" style="text;html=1;align=center;verticalAlign=middle;resizable=0;points=[];autosize=1;" vertex="1" parent="1">
          <mxGeometry x="155" y="210" width="70" height="20" as="geometry" />
        </mxCell>
        <mxCell id="95mtV3WKHOGAhBDc5iSU-87" value="from" style="text;html=1;align=center;verticalAlign=middle;resizable=0;points=[];autosize=1;" vertex="1" parent="1">
          <mxGeometry x="240" y="340" width="40" height="20" as="geometry" />
        </mxCell>
        <mxCell id="95mtV3WKHOGAhBDc5iSU-88" value="books" style="text;html=1;align=center;verticalAlign=middle;resizable=0;points=[];autosize=1;" vertex="1" parent="1">
          <mxGeometry x="475" y="345" width="50" height="20" as="geometry" />
        </mxCell>
        <mxCell id="95mtV3WKHOGAhBDc5iSU-89" value="sits" style="text;html=1;align=center;verticalAlign=middle;resizable=0;points=[];autosize=1;" vertex="1" parent="1">
          <mxGeometry x="635" y="430" width="30" height="20" as="geometry" />
        </mxCell>
        <mxCell id="95mtV3WKHOGAhBDc5iSU-90" value="registers" style="text;html=1;align=center;verticalAlign=middle;resizable=0;points=[];autosize=1;" vertex="1" parent="1">
          <mxGeometry x="630" y="220" width="60" height="20" as="geometry" />
        </mxCell>
        <mxCell id="95mtV3WKHOGAhBDc5iSU-91" value="" style="triangle;whiteSpace=wrap;html=1;fillColor=#000000;rotation=90;" vertex="1" parent="1">
          <mxGeometry x="635" y="250" width="10" height="10" as="geometry" />
        </mxCell>
        <mxCell id="95mtV3WKHOGAhBDc5iSU-92" value="0 : *" style="text;html=1;align=center;verticalAlign=middle;resizable=0;points=[];autosize=1;" vertex="1" parent="1">
          <mxGeometry x="220" y="90" width="40" height="20" as="geometry" />
        </mxCell>
        <mxCell id="95mtV3WKHOGAhBDc5iSU-93" value="1 : 1" style="text;html=1;align=center;verticalAlign=middle;resizable=0;points=[];autosize=1;" vertex="1" parent="1">
          <mxGeometry x="280" y="90" width="40" height="20" as="geometry" />
        </mxCell>
        <mxCell id="95mtV3WKHOGAhBDc5iSU-94" value="1 : 1" style="text;html=1;align=center;verticalAlign=middle;resizable=0;points=[];autosize=1;" vertex="1" parent="1">
          <mxGeometry x="460" y="85" width="40" height="20" as="geometry" />
        </mxCell>
        <mxCell id="95mtV3WKHOGAhBDc5iSU-95" value="0 : 1" style="text;html=1;align=center;verticalAlign=middle;resizable=0;points=[];autosize=1;" vertex="1" parent="1">
          <mxGeometry x="520" y="85" width="40" height="20" as="geometry" />
        </mxCell>
        <mxCell id="95mtV3WKHOGAhBDc5iSU-96" value="has" style="text;html=1;align=center;verticalAlign=middle;resizable=0;points=[];autosize=1;" vertex="1" parent="1">
          <mxGeometry x="505" y="120" width="30" height="20" as="geometry" />
        </mxCell>
        <mxCell id="95mtV3WKHOGAhBDc5iSU-97" value="" style="triangle;whiteSpace=wrap;html=1;fillColor=#000000;portConstraintRotation=0;rotation=-180;" vertex="1" parent="1">
          <mxGeometry x="490" y="125" width="10" height="10" as="geometry" />
        </mxCell>
        <mxCell id="95mtV3WKHOGAhBDc5iSU-98" value="1 : 1" style="text;html=1;align=center;verticalAlign=middle;resizable=0;points=[];autosize=1;" vertex="1" parent="1">
          <mxGeometry x="310" y="130" width="40" height="20" as="geometry" />
        </mxCell>
        <mxCell id="95mtV3WKHOGAhBDc5iSU-99" value="takes" style="text;html=1;align=center;verticalAlign=middle;resizable=0;points=[];autosize=1;" vertex="1" parent="1">
          <mxGeometry x="300" y="200" width="40" height="20" as="geometry" />
        </mxCell>
        <mxCell id="95mtV3WKHOGAhBDc5iSU-100" value="1 : *" style="text;html=1;align=center;verticalAlign=middle;resizable=0;points=[];autosize=1;" vertex="1" parent="1">
          <mxGeometry x="110" y="130" width="40" height="20" as="geometry" />
        </mxCell>
        <mxCell id="95mtV3WKHOGAhBDc5iSU-101" value="requests" style="text;html=1;align=center;verticalAlign=middle;resizable=0;points=[];autosize=1;" vertex="1" parent="1">
          <mxGeometry x="400" y="170" width="60" height="20" as="geometry" />
        </mxCell>
        <mxCell id="95mtV3WKHOGAhBDc5iSU-102" value="0 : *" style="text;html=1;align=center;verticalAlign=middle;resizable=0;points=[];autosize=1;" vertex="1" parent="1">
          <mxGeometry x="390" y="260" width="40" height="20" as="geometry" />
        </mxCell>
        <mxCell id="95mtV3WKHOGAhBDc5iSU-103" value="0 : *" style="text;html=1;align=center;verticalAlign=middle;resizable=0;points=[];autosize=1;" vertex="1" parent="1">
          <mxGeometry x="460" y="370" width="40" height="20" as="geometry" />
        </mxCell>
        <mxCell id="95mtV3WKHOGAhBDc5iSU-104" value="attends" style="text;html=1;align=center;verticalAlign=middle;resizable=0;points=[];autosize=1;" vertex="1" parent="1">
          <mxGeometry x="505" y="290" width="50" height="20" as="geometry" />
        </mxCell>
      </root>
    </mxGraphModel>
  </diagram>
</mxfile>
